<svg id="svg" version="1.1" xmlns="http://www.w3.org/2000/svg" xmlns:xlink="http://www.w3.org/1999/xlink" width="400" height="400" viewBox="0, 0, 400,400"><g id="svgg"><path id="path0" d="M127.147 206.120 L 127.147 299.704 138.598 299.704 L 150.049 299.704 150.049 206.120 L 150.049 112.537 138.598 112.537 L 127.147 112.537 127.147 206.120 M244.817 205.923 L 244.817 299.309 256.269 299.309 L 267.720 299.309 267.720 205.923 L 267.720 112.537 256.269 112.537 L 244.817 112.537 244.817 205.923 M197.433 119.116 C 179.976 120.821,168.213 132.910,168.213 149.146 C 168.213 174.551,194.755 187.517,220.138 174.511 C 225.130 171.954,224.679 173.368,224.679 160.255 L 224.679 148.865 218.164 148.865 L 211.649 148.865 211.649 156.546 L 211.649 164.228 209.809 165.041 C 195.505 171.369,181.522 161.545,183.597 146.625 C 185.525 132.766,200.854 127.179,213.550 135.709 C 215.002 136.685,216.314 137.561,216.466 137.657 C 216.683 137.793,221.665 132.045,224.583 128.291 C 226.717 125.545,206.904 118.160,199.438 118.918 C 199.095 118.953,198.193 119.042,197.433 119.116 M97.406 132.143 C 97.258 132.291,97.137 165.699,97.137 206.384 L 97.137 280.355 108.787 280.355 L 120.436 280.355 120.337 206.219 L 120.237 132.083 108.956 131.978 C 102.752 131.921,97.554 131.995,97.406 132.143 M274.432 205.923 L 274.432 279.961 285.884 279.961 L 297.335 279.961 297.335 205.923 L 297.335 131.885 285.884 131.885 L 274.432 131.885 274.432 205.923 M156.367 206.120 L 156.367 216.782 197.236 216.782 L 238.105 216.782 238.105 206.120 L 238.105 195.459 197.236 195.459 L 156.367 195.459 156.367 206.120 M75.117 206.219 L 75.222 216.190 83.218 216.296 L 91.214 216.403 91.214 206.326 L 91.214 196.249 83.113 196.249 L 75.011 196.249 75.117 206.219 M304.047 206.326 L 304.047 216.403 312.043 216.296 L 320.039 216.190 320.145 206.219 L 320.250 196.249 312.149 196.249 L 304.047 196.249 304.047 206.326 M172.162 236.723 L 172.162 242.843 181.046 242.843 L 189.931 242.843 189.931 266.535 L 189.931 290.227 197.433 290.227 L 204.936 290.227 204.936 266.535 L 204.936 242.843 214.018 242.843 L 223.100 242.843 223.100 236.723 L 223.100 230.602 197.631 230.602 L 172.162 230.602 172.162 236.723 " stroke="none" fill="#fbfbfb" fill-rule="evenodd"></path><path id="path1" d="M0.000 200.000 L 0.000 400.000 200.000 400.000 L 400.000 400.000 400.000 200.000 L 400.000 0.000 200.000 0.000 L 0.000 0.000 0.000 200.000 M150.444 206.318 L 150.444 300.099 138.598 300.099 L 126.752 300.099 126.752 206.318 L 126.752 112.537 138.598 112.537 L 150.444 112.537 150.444 206.318 M268.115 205.923 L 268.115 299.309 256.269 299.309 L 244.423 299.309 244.423 205.923 L 244.423 112.537 256.269 112.537 L 268.115 112.537 268.115 205.923 M211.056 120.225 C 217.877 122.223,226.055 126.983,224.938 128.306 C 224.651 128.646,222.698 131.007,220.598 133.553 L 216.780 138.181 213.721 136.104 C 201.606 127.878,186.724 132.456,184.051 145.232 C 180.896 160.313,194.793 171.248,209.225 165.040 L 211.237 164.174 211.344 156.421 L 211.451 148.667 218.071 148.559 L 224.691 148.451 224.586 160.395 L 224.482 172.339 221.915 173.835 C 197.725 187.940,169.367 176.132,167.935 151.357 C 166.651 129.152,188.261 113.550,211.056 120.225 M120.434 206.318 L 120.434 280.750 108.786 280.750 L 97.137 280.750 97.137 206.318 L 97.137 131.885 108.786 131.885 L 120.434 131.885 120.434 206.318 M297.632 206.022 L 297.532 280.158 285.982 280.263 L 274.432 280.367 274.432 206.126 L 274.432 131.885 286.082 131.885 L 297.732 131.885 297.632 206.022 M238.500 206.318 L 238.500 217.177 197.236 217.177 L 155.972 217.177 155.972 206.318 L 155.972 195.459 197.236 195.459 L 238.500 195.459 238.500 206.318 M91.517 206.219 L 91.622 216.387 83.324 216.387 L 75.025 216.387 75.025 206.112 L 75.025 195.838 83.218 195.945 L 91.412 196.051 91.517 206.219 M320.237 206.120 L 320.237 216.387 311.945 216.387 L 303.653 216.387 303.653 206.384 C 303.653 200.882,303.771 196.262,303.916 196.117 C 304.061 195.972,307.792 195.854,312.208 195.854 L 320.237 195.854 320.237 206.120 M223.100 236.920 L 223.100 243.238 214.215 243.238 L 205.331 243.238 205.331 266.930 L 205.331 290.622 197.631 290.622 L 189.931 290.622 189.931 266.930 L 189.931 243.238 181.046 243.238 L 172.162 243.238 172.162 236.920 L 172.162 230.602 197.631 230.602 L 223.100 230.602 223.100 236.920 " stroke="none" fill="#7cdc54" fill-rule="evenodd"></path><path id="path2" d="M126.946 206.318 C 126.946 258.006,126.992 279.210,127.048 253.437 C 127.104 227.665,127.104 185.375,127.048 159.459 C 126.992 133.543,126.946 154.630,126.946 206.318 M244.617 205.923 C 244.617 257.394,244.663 278.391,244.719 252.584 C 244.775 226.777,244.775 184.665,244.719 159.001 C 244.663 133.337,244.617 154.452,244.617 205.923 M267.914 205.923 C 267.914 257.394,267.960 278.391,268.016 252.584 C 268.072 226.777,268.072 184.665,268.016 159.001 C 267.960 133.337,267.914 154.452,267.914 205.923 M214.926 148.764 C 216.837 148.837,219.857 148.836,221.638 148.763 C 223.419 148.690,221.856 148.631,218.164 148.631 C 214.472 148.632,213.015 148.692,214.926 148.764 M176.308 170.582 C 177.378 171.668,178.341 172.557,178.450 172.557 C 178.559 172.557,177.772 171.668,176.703 170.582 C 175.633 169.497,174.669 168.608,174.561 168.608 C 174.452 168.608,175.238 169.497,176.308 170.582 M198.124 179.950 C 198.830 180.038,199.985 180.038,200.691 179.950 C 201.397 179.862,200.819 179.791,199.408 179.791 C 197.996 179.791,197.419 179.862,198.124 179.950 M79.094 196.149 C 81.440 196.219,85.171 196.218,87.386 196.148 C 89.600 196.078,87.680 196.021,83.119 196.021 C 78.559 196.021,76.747 196.079,79.094 196.149 M308.116 196.149 C 310.463 196.219,314.194 196.218,316.408 196.148 C 318.623 196.078,316.703 196.021,312.142 196.021 C 307.581 196.021,305.770 196.079,308.116 196.149 M176.626 243.138 C 179.191 243.207,183.277 243.207,185.708 243.138 C 188.139 243.068,186.041 243.012,181.046 243.012 C 176.051 243.013,174.062 243.069,176.626 243.138 M209.795 243.138 C 212.359 243.207,216.446 243.207,218.877 243.138 C 221.308 243.068,219.210 243.012,214.215 243.012 C 209.220 243.013,207.231 243.069,209.795 243.138 M280.059 280.256 C 283.263 280.322,288.504 280.322,291.708 280.256 C 294.911 280.189,292.290 280.135,285.884 280.135 C 279.477 280.135,276.856 280.189,280.059 280.256 " stroke="none" fill="#a6e588" fill-rule="evenodd"></path><path id="path3" d="M150.147 206.213 L 150.049 299.692 138.500 299.803 L 126.950 299.914 138.512 300.006 C 147.467 300.078,150.116 299.987,150.262 299.605 C 150.365 299.334,150.403 257.177,150.347 205.923 L 150.245 112.734 150.147 206.213 M297.528 205.923 C 297.528 246.752,297.574 263.514,297.631 243.171 C 297.687 222.827,297.687 189.422,297.631 168.936 C 297.574 148.449,297.528 165.094,297.528 205.923 M167.945 149.260 C 167.945 150.671,168.016 151.249,168.104 150.543 C 168.192 149.837,168.192 148.682,168.104 147.976 C 168.016 147.270,167.945 147.848,167.945 149.260 M183.318 149.457 C 183.322 150.326,183.403 150.635,183.497 150.143 C 183.592 149.652,183.588 148.942,183.489 148.564 C 183.391 148.186,183.313 148.588,183.318 149.457 M156.146 206.120 C 156.146 212.093,156.200 214.536,156.268 211.550 C 156.335 208.564,156.335 203.677,156.268 200.691 C 156.200 197.705,156.146 200.148,156.146 206.120 M103.183 280.651 C 106.400 280.717,111.553 280.717,114.634 280.650 C 117.716 280.584,115.084 280.529,108.786 280.530 C 102.488 280.530,99.966 280.584,103.183 280.651 " stroke="none" fill="#bcecac" fill-rule="evenodd"></path><path id="path4" d="M211.419 156.367 C 211.419 160.602,211.477 162.335,211.548 160.217 C 211.619 158.100,211.619 154.635,211.548 152.517 C 211.477 150.400,211.419 152.132,211.419 156.367 M238.197 206.020 L 238.105 216.778 197.137 216.881 L 156.170 216.983 197.150 217.080 C 229.910 217.157,238.168 217.076,238.321 216.677 C 238.427 216.402,238.462 211.471,238.401 205.719 L 238.288 195.262 238.197 206.020 M91.386 206.120 C 91.386 211.658,91.441 213.924,91.509 211.155 C 91.577 208.386,91.577 203.855,91.509 201.086 C 91.441 198.317,91.386 200.582,91.386 206.120 M303.824 206.120 C 303.824 211.658,303.880 213.924,303.948 211.155 C 304.015 208.386,304.015 203.855,303.948 201.086 C 303.880 198.317,303.824 200.582,303.824 206.120 M205.031 266.625 L 204.936 290.210 197.335 290.326 L 189.733 290.443 197.347 290.532 C 203.141 290.600,205.006 290.504,205.149 290.128 C 205.253 289.857,205.291 279.151,205.233 266.338 L 205.127 243.040 205.031 266.625 " stroke="none" fill="#bceca4" fill-rule="evenodd"></path></g></svg>